<svg xmlns="http://www.w3.org/2000/svg" viewBox="0 0 77.18 24.09"><defs><style>.cls-1{fill:#2672fb;}</style></defs><g id="Layer_2" data-name="Layer 2"><g id="Layer_2_copy" data-name="Layer 2 copy"><path d="M6,0A5.68,5.68,0,0,0,2.29,1.29V2.9A5.08,5.08,0,0,1,6,1.26,4.57,4.57,0,0,1,10.57,6V9.77A5.41,5.41,0,0,0,12,6,5.9,5.9,0,0,0,6,0Z"/><path d="M1.42,5.91V2.15A5.42,5.42,0,0,0,0,5.91a5.9,5.9,0,0,0,6,6A5.75,5.75,0,0,0,9.7,10.63V9A5.2,5.2,0,0,1,6,10.66,4.56,4.56,0,0,1,1.42,5.91Z"/><path d="M20,.19H16V11.73h1.37V1.38H20a2.09,2.09,0,0,1,2.31,2.17A2.07,2.07,0,0,1,20,5.7H18.2V6.89H20c2.27,0,3.69-1.4,3.69-3.36S22.31.19,20,.19Z"/><path d="M33.5,2.71l1-.75a4.23,4.23,0,0,0-3.56-2,4.16,4.16,0,0,0-1.26.19v1.3a3.3,3.3,0,0,1,1.22-.23A3.1,3.1,0,0,1,33.5,2.71Z"/><path d="M31.94,5.49l-1.27-.61c-1.05-.51-1.86-.9-1.86-2.12V.59A2.79,2.79,0,0,0,27.4,3c0,1.63,1.26,2.43,2.6,3.08l1.29.61c1.14.54,1.93,1,1.93,2.2v2.36A2.94,2.94,0,0,0,34.63,8.7C34.63,7.15,33.64,6.29,31.94,5.49Z"/><path d="M27.68,8.69l-1,.75a4.85,4.85,0,0,0,4.21,2.48,4.39,4.39,0,0,0,1.49-.25V10.4a4.55,4.55,0,0,1-1.47.26A3.85,3.85,0,0,1,27.68,8.69Z"/><polygon points="37.29 0.21 41.68 11.94 42.17 11.94 42.66 10.75 38.79 0.21 37.29 0.21"/><polygon points="50.1 7.8 50.84 9.6 54.33 0.21 52.85 0.21 50.1 7.8"/><polygon points="45.58 0.02 42.48 7.76 43.13 9.54 45.82 2.8 49.47 11.94 49.98 11.94 50.38 10.82 46.06 0.02 45.58 0.02"/><polygon points="58.49 8.18 60.33 3.92 59.61 2.22 55.56 11.75 56.99 11.75 57.97 9.4 62.69 9.4 62.16 8.18 58.49 8.18"/><polygon points="60.56 0.02 60.07 1.12 64.61 11.75 66.06 11.75 61.06 0.02 60.56 0.02"/><rect x="66.78" y="0.21" width="9.49" height="1.22"/><rect x="70.83" y="2.29" width="1.36" height="9.46"/><path d="M76.29,10.8h-.15v.25h.15a.12.12,0,0,0,.13-.12A.13.13,0,0,0,76.29,10.8Z"/><path d="M76.28,10.16a.92.92,0,1,0,.9.92A.91.91,0,0,0,76.28,10.16Zm.23,1.39-.24-.32h-.13v.32h-.22v-.94h.38a.31.31,0,0,1,.34.32.3.3,0,0,1-.15.26l.26.36Z"/><path class="cls-1" d="M5.33,18.05H6V24H5.34V19.43l-1.42,3H3.31l-1.42-3V24H1.24V18.05H1.9l1.71,3.6Z"/><path class="cls-1" d="M10,22.62h.66A1.58,1.58,0,0,1,8.9,24.09a1.59,1.59,0,0,1-1.72-1.72V21.21A1.58,1.58,0,0,1,8.9,19.5a1.58,1.58,0,0,1,1.72,1.71V22H7.82v.43A1,1,0,0,0,8.9,23.47,1,1,0,0,0,10,22.62Zm0-1.42A1,1,0,0,0,8.9,20.11,1,1,0,0,0,7.82,21.2v.17H10Z"/><path class="cls-1" d="M12.57,23c0,.29.1.39.41.39h.67V24H13c-.82,0-1.05-.3-1.05-1.05V20.23h-.62v-.62h.62v-1h.64v1h1.08v.62H12.57Z"/><path class="cls-1" d="M15.12,21h-.65a1.56,1.56,0,0,1,1.71-1.46,1.58,1.58,0,0,1,1.71,1.71V24h-.63v-.45a1.67,1.67,0,0,1-1.37.54,1.31,1.31,0,0,1-1.46-1.31,1.23,1.23,0,0,1,1-1.25,9,9,0,0,1,1.87-.25V21.2a1,1,0,0,0-1.08-1.09A1,1,0,0,0,15.12,21Zm2.14.89a5.39,5.39,0,0,0-1.81.29.63.63,0,0,0-.38.63c0,.4.31.7.95.7s1.24-.36,1.24-1Z"/><path class="cls-1" d="M21.07,18.05a1.85,1.85,0,0,1,1.92,2V22a1.85,1.85,0,0,1-1.92,2H19.15V18.05Zm-1.26.65v4.65h1.26A1.23,1.23,0,0,0,22.34,22V20.06a1.23,1.23,0,0,0-1.27-1.36Z"/><path class="cls-1" d="M26.78,22.62h.66a1.58,1.58,0,0,1-1.71,1.47A1.59,1.59,0,0,1,24,22.37V21.21a1.58,1.58,0,0,1,1.72-1.71,1.58,1.58,0,0,1,1.72,1.71V22h-2.8v.43a1,1,0,0,0,1.08,1.09A1,1,0,0,0,26.78,22.62Zm0-1.42a1.08,1.08,0,1,0-2.16,0v.17h2.16Z"/><path class="cls-1" d="M29.83,18.66c-.31,0-.41.1-.41.39v.56H30.5v.62H29.42V24h-.64V20.23h-.62v-.62h.62V19.1c0-.75.23-1.05,1-1.05h.67v.61Z"/><path class="cls-1" d="M33.85,22.62h.65a1.57,1.57,0,0,1-1.71,1.47,1.59,1.59,0,0,1-1.71-1.72V21.21a1.72,1.72,0,0,1,3.43,0V22h-2.8v.43a1.08,1.08,0,0,0,2.14.24Zm0-1.42a1.08,1.08,0,1,0-2.16,0v.17h2.16Z"/><path class="cls-1" d="M39.06,21.21V24h-.64V21.2a1.08,1.08,0,1,0-2.16,0V24h-.64V19.61h.64V20a1.27,1.27,0,0,1,1.08-.53A1.58,1.58,0,0,1,39.06,21.21Z"/><path class="cls-1" d="M40.15,22.37V21.21a1.59,1.59,0,0,1,1.72-1.71A1.27,1.27,0,0,1,43,20v-2h.64V24H43v-.45a1.28,1.28,0,0,1-1.08.54A1.6,1.6,0,0,1,40.15,22.37Zm.64,0a1.08,1.08,0,1,0,2.16,0V21.2a1.08,1.08,0,1,0-2.16,0Z"/><path class="cls-1" d="M47.52,22.62h.65a1.57,1.57,0,0,1-1.71,1.47,1.6,1.6,0,0,1-1.72-1.72V21.21a1.72,1.72,0,0,1,3.44,0V22h-2.8v.43a1.08,1.08,0,0,0,2.14.24Zm0-1.42a1.08,1.08,0,1,0-2.16,0v.17h2.16Z"/><path class="cls-1" d="M49.93,20.07A1.3,1.3,0,0,1,51,19.54h.28v.61H51a1,1,0,0,0-1.08,1.1V24h-.64V19.61h.64Z"/></g></g></svg>