<svg xmlns="http://www.w3.org/2000/svg" viewBox="0 0 422.52 73.97" width="422.52" height="73.97"><defs><style>.cls-1{fill:#fff;}</style></defs><title>Asset 2</title><g id="Layer_2" data-name="Layer 2"><g id="Layer_1-2" data-name="Layer 1"><g id="A0YUSf.tif"><path class="cls-1" d="M179.19,21.5A2.77,2.77,0,0,1,177,20.41q-5.64-6.88-11.31-13.74l-.4-.48c-.56-.64-1-.65-1.5,0q-2.93,3.58-5.84,7.17c-1.95,2.39-3.87,4.8-5.84,7.17a3,3,0,0,1-4.64-.08l-.6-.72L136.09,6.66c-.61-.74-.9-.74-1.51,0L123.24,20.58a3.29,3.29,0,0,1-5.12.06q-7.19-8.58-14.34-17.19C102.41,1.79,103.27.83,105,.18a2.87,2.87,0,0,1,3.31,1.07l11.15,13.87c.8,1,1,1,1.8,0,3.71-4.56,7.49-9.07,11.09-13.72a3.78,3.78,0,0,1,5.64,0c3.6,4.71,7.44,9.24,11.19,13.84.68.83.93.83,1.6,0l11.38-14a3.06,3.06,0,0,1,4.89-.09q7.25,8.57,14.48,17.17a1.61,1.61,0,0,1-.58,2.73A4.14,4.14,0,0,1,179.19,21.5Z"/><path class="cls-1" d="M81.62,21.49c-3.34,0-6.69,0-10,0-.6,0-.75-.18-.73-.74a28,28,0,0,0,0-2.8c0-.63.15-.83.81-.83,6.45,0,12.9,0,19.36,0,1.45,0,2.24-.78,2.18-2.12A2.06,2.06,0,0,0,91,13.09H80.52c-1.06,0-2.13,0-3.19,0a6.35,6.35,0,0,1-6.39-5.5A6.48,6.48,0,0,1,76.31.37a4,4,0,0,1,.77,0c6.19,0,12.39,0,18.58,0,.65,0,.85.18.82.82a24,24,0,0,0,0,2.72c0,.64-.15.83-.81.83-6.06,0-12.13,0-18.19,0A2,2,0,0,0,75.29,7a2.07,2.07,0,0,0,2.26,1.79H91.23A6.36,6.36,0,0,1,93.67,21,6.68,6.68,0,0,1,91,21.5C87.84,21.47,84.73,21.49,81.62,21.49Z"/><path class="cls-1" d="M14.36,21.65c-1.22,0-2.44-.06-3.65,0a9.31,9.31,0,0,1-7.56-3.15A10.47,10.47,0,0,1,.54,7.68,11,11,0,0,1,11,0c2.12,0,4.25,0,6.37,0C23-.1,27.69,3.68,28.7,9.91c.69,4.25-2.55,10.44-8.37,11.62a29.54,29.54,0,0,1-4.73.11C15.19,21.66,14.78,21.65,14.36,21.65Zm-.47-4.21c1.81,0,3.19.11,4.55,0a6.28,6.28,0,0,0,5.71-6.81,6.44,6.44,0,0,0-6.47-6.23c-1.63,0-3.26,0-4.89,0a17,17,0,0,0-3.25.14,6.38,6.38,0,0,0-5.11,5.8c-.14,3.44,1.61,6,4.65,6.86C10.81,17.67,12.58,17.33,13.9,17.44Z"/><path class="cls-1" d="M36.93,10.77c0-3.27,0-6.53,0-9.8,0-.63.15-.83.81-.83,6.4,0,12.8,0,19.21,0a6.32,6.32,0,0,1,6.39,5.52,6.52,6.52,0,0,1-4.82,7.06,6.77,6.77,0,0,1-1.77.22C51.8,13,46.88,13,42,13c-.64,0-.84.17-.83.82,0,2.33,0,4.67,0,7,0,.58-.17.78-.75.75-.93,0-1.87,0-2.8,0-.56,0-.69-.19-.69-.72C36.94,17.46,36.93,14.12,36.93,10.77ZM49.59,4.69c-2.57,0-5.13,0-7.7,0-.53,0-.81.06-.77.7a25.16,25.16,0,0,1,0,2.72c0,.52.17.66.67.66H57.12a2.16,2.16,0,0,0,2.16-2.1,2,2,0,0,0-2.15-2Z"/><path class="cls-1" d="M195.71.15c4.3,0,8.6,0,12.9,0,.6,0,.82.14.79.78a26.71,26.71,0,0,0,0,2.87c0,.58-.14.74-.73.74-3.34,0-6.68,0-10,0-.71,0-.93.19-.92.91,0,5.13,0,10.26,0,15.39,0,.75-.23.93-.92.89a21,21,0,0,0-2.64,0c-.67,0-.81-.22-.81-.84,0-5.1,0-10.21,0-15.31,0-1,0-1-1-1-3.24,0-6.48,0-9.71,0-.6,0-.83-.14-.8-.77,0-1,0-1.92,0-2.87,0-.59.18-.74.75-.74C187,.16,191.36.15,195.71.15Z"/><path class="cls-1" d="M164.8,14c.75,0,1.5,0,2.25,0A2,2,0,0,1,169,16.06a1.85,1.85,0,0,1-1.94,2q-2.21,0-4.42,0a2,2,0,0,1-2-2.09,1.88,1.88,0,0,1,2-2C163.36,14,164.08,14,164.8,14Z"/><path class="cls-1" d="M215.31,4.67A2.23,2.23,0,0,1,213,2.37,2.24,2.24,0,0,1,215.35,0a2.21,2.21,0,0,1,2.29,2.38A2.21,2.21,0,0,1,215.31,4.67Zm1.24-1.06c.19.1.28,0,.37-.17a2.11,2.11,0,0,0-.34-2.56,2.12,2.12,0,0,0-2.64.12,2.1,2.1,0,0,0-.06,2.64c.7.82,2.26.79,2.68,0Z"/><path class="cls-1" d="M216.56,3.59a.53.53,0,0,1-.73-.37.56.56,0,0,0-.65-.42c-.42,0-.28.35-.32.58s0,.35-.19.36-.24-.22-.24-.39a12.57,12.57,0,0,1,0-1.32c0-.33-.23-.84.22-1a1.62,1.62,0,0,1,1.62.24c.35.35.26.78,0,1.2s.33.7.3,1.1Zm-1.24-1.24c.33,0,.64,0,.66-.4s-.29-.48-.64-.51-.49.15-.49.5S215,2.39,215.32,2.36Z"/></g><path class="cls-1" d="M19.52,73.37,8.92,38.82H8.65q.57,10.54.57,14.06V73.37H.88v-44H13.59L24,63h.18L35.24,29.34H47.95v44h-8.7V52.53q0-1.48,0-3.4t.41-10.24h-.27L28.07,73.37Z"/><path class="cls-1" d="M71.08,74q-8.13,0-12.71-4.49T53.79,56.77q0-8.46,4.23-13.08t11.7-4.62q7.14,0,11.11,4.07t4,11.23v4.46H63.1a8.84,8.84,0,0,0,2.32,6.11,8.16,8.16,0,0,0,6.08,2.2,25.3,25.3,0,0,0,5.75-.63,28.8,28.8,0,0,0,5.66-2v7.11a21.51,21.51,0,0,1-5.15,1.79A32.46,32.46,0,0,1,71.08,74ZM69.79,45.6a5.83,5.83,0,0,0-4.58,1.85,8.57,8.57,0,0,0-1.9,5.26H76.2a7.66,7.66,0,0,0-1.78-5.26A6,6,0,0,0,69.79,45.6Z"/><path class="cls-1" d="M104,66.65a19.9,19.9,0,0,0,5.78-1.05v6.84A20.61,20.61,0,0,1,101.35,74q-5.51,0-8-2.79t-2.51-8.36V46.59h-4.4V42.71l5.06-3.07,2.65-7.11H100V39.7h9.43v6.9H100V62.83a3.58,3.58,0,0,0,1.1,2.89A4.34,4.34,0,0,0,104,66.65Z"/><path class="cls-1" d="M135.51,73.37l-1.78-4.58h-.24a13.56,13.56,0,0,1-4.77,4.05,15.43,15.43,0,0,1-6.4,1.13,10.35,10.35,0,0,1-7.63-2.77q-2.79-2.77-2.79-7.89,0-5.36,3.75-7.91T127,52.59l5.84-.18V50.93q0-5.12-5.24-5.12a23.87,23.87,0,0,0-9.49,2.44L115,42a27.37,27.37,0,0,1,12.89-3q6.78,0,10.39,3t3.61,9V73.37Zm-2.71-15.6-3.55.12a11.38,11.38,0,0,0-6,1.45,4.54,4.54,0,0,0-2,4q0,3.88,4.46,3.89a7.06,7.06,0,0,0,5.1-1.84,6.45,6.45,0,0,0,1.91-4.88Z"/><path class="cls-1" d="M159.57,74a10.94,10.94,0,0,1-9.32-4.61q-3.39-4.61-3.39-12.77t3.45-12.9a11.2,11.2,0,0,1,9.5-4.62,11,11,0,0,1,9.7,4.94h.3a37.53,37.53,0,0,1-.69-6.72V26.51h9.22V73.37h-7L169.51,69h-.39Q166,74,159.57,74Zm3.22-7.32q3.52,0,5.17-2t1.79-7v-1q0-5.42-1.67-7.77t-5.44-2.35a5.39,5.39,0,0,0-4.77,2.61q-1.7,2.6-1.7,7.57t1.72,7.45A5.61,5.61,0,0,0,162.79,66.65Z"/><path class="cls-1" d="M200.71,74q-8.13,0-12.71-4.49t-4.58-12.71q0-8.46,4.23-13.08t11.7-4.62q7.14,0,11.11,4.07t4,11.23v4.46H192.73a8.84,8.84,0,0,0,2.32,6.11,8.16,8.16,0,0,0,6.08,2.2,25.29,25.29,0,0,0,5.75-.63,28.73,28.73,0,0,0,5.66-2v7.11a21.49,21.49,0,0,1-5.15,1.79A32.48,32.48,0,0,1,200.71,74ZM199.42,45.6a5.83,5.83,0,0,0-4.58,1.85,8.57,8.57,0,0,0-1.9,5.26h12.89a7.66,7.66,0,0,0-1.78-5.26A6,6,0,0,0,199.42,45.6Z"/><path class="cls-1" d="M238.06,46.59h-8V73.37h-9.19V46.59h-5.06V42.17l5.06-2.47V37.23q0-5.75,2.83-8.4t9.07-2.65a23.6,23.6,0,0,1,8.46,1.42l-2.35,6.75a17.13,17.13,0,0,0-5.12-.87A3.32,3.32,0,0,0,231,34.62a4.79,4.79,0,0,0-.87,3V39.7h8Z"/><path class="cls-1" d="M256.1,74q-8.13,0-12.71-4.49t-4.58-12.71q0-8.46,4.23-13.08t11.7-4.62q7.14,0,11.11,4.07t4,11.23v4.46H248.12a8.84,8.84,0,0,0,2.32,6.11,8.16,8.16,0,0,0,6.08,2.2,25.29,25.29,0,0,0,5.75-.63,28.78,28.78,0,0,0,5.66-2v7.11a21.52,21.52,0,0,1-5.15,1.79A32.47,32.47,0,0,1,256.1,74ZM254.81,45.6a5.83,5.83,0,0,0-4.58,1.85,8.58,8.58,0,0,0-1.9,5.26h12.89a7.66,7.66,0,0,0-1.78-5.26A6,6,0,0,0,254.81,45.6Z"/><path class="cls-1" d="M305.92,73.37h-9.19V53.7a9.46,9.46,0,0,0-1.29-5.47,4.71,4.71,0,0,0-4.13-1.82q-3.86,0-5.57,2.57T284,57.53V73.37h-9.19V39.7h7L283.09,44h.51a9.71,9.71,0,0,1,4.23-3.69A14.42,14.42,0,0,1,294,39.06q5.87,0,8.91,3.18t3,9.17Z"/><path class="cls-1" d="M323.57,74a10.94,10.94,0,0,1-9.32-4.61q-3.39-4.61-3.39-12.77t3.45-12.9a11.2,11.2,0,0,1,9.5-4.62,11,11,0,0,1,9.7,4.94h.3a37.53,37.53,0,0,1-.69-6.72V26.51h9.22V73.37h-7L333.51,69h-.39Q330,74,323.57,74Zm3.22-7.32q3.52,0,5.17-2t1.79-7v-1q0-5.42-1.67-7.77t-5.44-2.35a5.39,5.39,0,0,0-4.77,2.61q-1.7,2.6-1.7,7.57t1.72,7.45A5.61,5.61,0,0,0,326.79,66.65Z"/><path class="cls-1" d="M364.71,74q-8.13,0-12.71-4.49t-4.58-12.71q0-8.46,4.23-13.08t11.7-4.62q7.14,0,11.11,4.07t4,11.23v4.46H356.73A8.84,8.84,0,0,0,359,64.93a8.16,8.16,0,0,0,6.08,2.2,25.29,25.29,0,0,0,5.75-.63,28.78,28.78,0,0,0,5.66-2v7.11a21.52,21.52,0,0,1-5.15,1.79A32.47,32.47,0,0,1,364.71,74ZM363.42,45.6a5.83,5.83,0,0,0-4.58,1.85,8.58,8.58,0,0,0-1.9,5.26h12.89a7.66,7.66,0,0,0-1.78-5.26A6,6,0,0,0,363.42,45.6Z"/><path class="cls-1" d="M402.24,39.06a14.82,14.82,0,0,1,3.1.27l-.69,8.61a10.55,10.55,0,0,0-2.71-.3,9.74,9.74,0,0,0-6.85,2.26,8.16,8.16,0,0,0-2.46,6.32V73.37h-9.19V39.7h7l1.36,5.66h.45a12.65,12.65,0,0,1,4.23-4.56A10.43,10.43,0,0,1,402.24,39.06Z"/><path class="cls-1" d="M414.79,39.64h-.64V34.69H412.4v-.57h4.13v.57h-1.75Z"/><path class="cls-1" d="M419.5,39.64l-1.87-4.89h0q.05.58.05,1.38v3.51h-.59V34.12h1l1.75,4.55h0l1.76-4.55h1v5.52h-.64V36.08q0-.61.05-1.33h0L420,39.64Z"/></g></g></svg>